<?xml version="1.0" encoding="UTF-8"?>
<!DOCTYPE svg PUBLIC "-//W3C//DTD SVG 1.1//EN" "http://www.w3.org/Graphics/SVG/1.1/DTD/svg11.dtd">
<svg xmlns="http://www.w3.org/2000/svg" version="1.1" width="64px" height="64px" style="shape-rendering:geometricPrecision; text-rendering:geometricPrecision; image-rendering:optimizeQuality; fill-rule:evenodd; clip-rule:evenodd" xmlns:xlink="http://www.w3.org/1999/xlink">
<g><path style="opacity:0.609" fill="#eeb9d2" d="M 44.5,19.5 C 43.8333,19.5 43.1667,19.5 42.5,19.5C 45.1709,9.50419 41.5042,5.83752 31.5,8.5C 21.4958,5.83752 17.8291,9.50419 20.5,19.5C 19.8333,19.5 19.1667,19.5 18.5,19.5C 15.32,7.68258 19.6534,3.01591 31.5,5.5C 43.3466,3.01591 47.68,7.68258 44.5,19.5 Z"/></g>
<g><path style="opacity:0.525" fill="#efc3d7" d="M 22.5,9.5 C 24.4646,9.94835 24.7979,10.9483 23.5,12.5C 21.4807,11.8671 21.1474,10.8671 22.5,9.5 Z"/></g>
<g><path style="opacity:0.498" fill="#f0b6d4" d="M 25.5,9.5 C 27.1667,9.5 28.8333,9.5 30.5,9.5C 30.5,10.5 30.5,11.5 30.5,12.5C 27.715,13.0838 26.0483,12.0838 25.5,9.5 Z"/></g>
<g><path style="opacity:0.51" fill="#efbcd4" d="M 32.5,9.5 C 35.7216,9.10809 38.7216,9.60809 41.5,11C 38.7055,12.5569 35.7055,12.8902 32.5,12C 31.4019,11.2303 31.4019,10.397 32.5,9.5 Z"/></g>
<g><path style="opacity:0.54" fill="#eeb9d2" d="M 22.5,13.5 C 24.337,13.6395 24.6704,14.3061 23.5,15.5C 22.7025,15.0431 22.3691,14.3764 22.5,13.5 Z"/></g>
<g><path style="opacity:0.662" fill="#eeb8d2" d="M 25.5,13.5 C 27.288,13.2148 28.9547,13.5481 30.5,14.5C 29.6667,14.8333 28.8333,15.1667 28,15.5C 26.6244,15.3158 25.7911,14.6491 25.5,13.5 Z"/></g>
<g><path style="opacity:0.708" fill="#efb8d3" d="M 31.5,13.5 C 34.5719,13.1826 37.5719,13.5159 40.5,14.5C 39,14.8333 37.5,15.1667 36,15.5C 34.0145,15.4313 32.5145,14.7647 31.5,13.5 Z"/></g>
<g><path style="opacity:0.829" fill="#eabbd9" d="M 22.5,16.5 C 24.4646,16.9483 24.7979,17.9483 23.5,19.5C 21.4807,18.8671 21.1474,17.8671 22.5,16.5 Z"/></g>
<g><path style="opacity:0.939" fill="#e8b0d6" d="M 26.5,16.5 C 27.8333,16.5 29.1667,16.5 30.5,16.5C 30.5,17.5 30.5,18.5 30.5,19.5C 28.712,19.7852 27.0453,19.4519 25.5,18.5C 25.8627,17.8165 26.1961,17.1499 26.5,16.5 Z"/></g>
<g><path style="opacity:0.986" fill="#e9b6d7" d="M 32.5,16.5 C 35.7216,16.1081 38.7216,16.6081 41.5,18C 38.7055,19.5569 35.7055,19.8902 32.5,19C 31.4019,18.2303 31.4019,17.397 32.5,16.5 Z"/></g>
<g><path style="opacity:0.762" fill="#d199df" d="M 18.5,19.5 C 19.1667,19.5 19.8333,19.5 20.5,19.5C 24.318,19.9769 26.818,21.9769 28,25.5C 28.4017,24.1279 28.9017,22.7946 29.5,21.5C 33.8767,20.7777 38.2101,20.1111 42.5,19.5C 43.1667,19.5 43.8333,19.5 44.5,19.5C 43.178,21.3111 42.678,23.3111 43,25.5C 50.0745,22.302 55.7412,23.9687 60,30.5C 60.49,31.7932 60.6567,33.1266 60.5,34.5C 60.1583,35.3382 59.4916,35.6716 58.5,35.5C 58.4452,32.3855 57.1119,30.0522 54.5,28.5C 52.4689,25.5073 51.1355,25.8406 50.5,29.5C 49.5,29.5 48.5,29.5 47.5,29.5C 48.8499,28.1765 48.6833,27.1765 47,26.5C 45.415,27.0439 43.915,27.7106 42.5,28.5C 41.5,28.5 40.5,28.5 39.5,28.5C 39.9528,27.5416 40.6195,26.7083 41.5,26C 36.4682,24.5875 32.1349,25.5875 28.5,29C 27.552,29.4828 26.552,29.6495 25.5,29.5C 23.9826,29.5106 22.8159,30.1772 22,31.5C 21.6012,31.2716 21.4346,30.9382 21.5,30.5C 17.7574,27.5766 13.4241,26.7433 8.5,28C 6.3395,28.9959 4.67284,30.4959 3.5,32.5C 2.60895,31.8902 1.60895,31.5569 0.5,31.5C 2.6591,27.5044 5.99243,25.3378 10.5,25C 13.5,24.3333 16.5,24.3333 19.5,25C 20.8168,26.6591 22.4835,27.8257 24.5,28.5C 26.2029,24.6837 24.8695,22.8503 20.5,23C 19.1772,22.1841 18.5106,21.0174 18.5,19.5 Z"/></g>
<g><path style="opacity:0.686" fill="#b97eea" d="M 25.5,29.5 C 26.1465,31.1561 26.8131,32.8228 27.5,34.5C 27.315,35.5837 26.9817,36.5837 26.5,37.5C 24.7085,37.366 23.0418,37.6993 21.5,38.5C 21.7529,36.1727 21.0863,34.1727 19.5,32.5C 14.8442,33.925 10.1775,35.2583 5.5,36.5C 3.90097,36.2322 2.56764,36.5655 1.5,37.5C 0.538616,35.7354 0.205283,33.7354 0.5,31.5C 1.60895,31.5569 2.60895,31.8902 3.5,32.5C 4.60093,33.5983 5.93426,33.765 7.5,33C 6.39612,31.8687 6.72945,31.0354 8.5,30.5C 9.94107,31.304 11.4411,31.9706 13,32.5C 15.6388,31.0056 18.4721,30.3389 21.5,30.5C 21.4346,30.9382 21.6012,31.2716 22,31.5C 22.8159,30.1772 23.9826,29.5106 25.5,29.5 Z"/></g>
<g><path style="opacity:0.578" fill="#bc81e8" d="M 39.5,28.5 C 40.5,28.5 41.5,28.5 42.5,28.5C 41.3862,29.8853 40.3862,31.3853 39.5,33C 42.4299,32.708 45.0966,31.5414 47.5,29.5C 48.5,29.5 49.5,29.5 50.5,29.5C 48.3645,32.7385 45.3645,34.7385 41.5,35.5C 39.8333,35.5 38.1667,35.5 36.5,35.5C 37.0549,32.904 38.0549,30.5707 39.5,28.5 Z"/></g>
<g><path style="opacity:0.734" fill="#aa6cf0" d="M 54.5,28.5 C 53.9371,30.91 53.4371,33.2433 53,35.5C 54.3513,37.019 55.8513,38.3523 57.5,39.5C 58.4287,38.3112 58.762,36.9778 58.5,35.5C 59.4916,35.6716 60.1583,35.3382 60.5,34.5C 61.4731,36.9479 61.8064,39.6146 61.5,42.5C 59.8333,42.5 58.1667,42.5 56.5,42.5C 56.5654,42.0618 56.3988,41.7284 56,41.5C 55.7508,42.624 55.2508,43.624 54.5,44.5C 53.1667,43.1667 51.8333,43.1667 50.5,44.5C 49.1185,41.6824 50.1185,40.1824 53.5,40C 52.3333,38.8333 51.1667,37.6667 50,36.5C 48.1879,37.9771 46.3545,39.3104 44.5,40.5C 41.8333,40.5 39.1667,40.5 36.5,40.5C 36.5,38.8333 36.5,37.1667 36.5,35.5C 38.1667,35.5 39.8333,35.5 41.5,35.5C 40.9094,36.1515 40.2427,36.8182 39.5,37.5C 45.3761,37.5256 49.7095,34.6922 52.5,29C 53.0944,28.5357 53.7611,28.369 54.5,28.5 Z"/></g>
<g><path style="opacity:0.722" fill="#a364f4" d="M 5.5,36.5 C 5.33449,40.5138 5.50115,44.5138 6,48.5C 9.8919,54.2591 14.5586,54.9258 20,50.5C 21.3537,46.6372 21.8537,42.6372 21.5,38.5C 23.0418,37.6993 24.7085,37.366 26.5,37.5C 25.9439,40.0761 25.7773,42.7428 26,45.5C 23.9384,47.3603 22.6051,49.6936 22,52.5C 16.3333,57.8333 10.6667,57.8333 5,52.5C 3.99437,49.1552 2.49437,46.1552 0.5,43.5C 1.15558,41.5466 1.48891,39.5466 1.5,37.5C 2.56764,36.5655 3.90097,36.2322 5.5,36.5 Z"/></g>
<g><path style="opacity:0.758" fill="#a566f3" d="M 15.5,39.5 C 19.4193,38.7464 20.7527,40.0797 19.5,43.5C 18.2679,42.8555 16.9346,42.6888 15.5,43C 14.8288,42.0138 14.8288,40.8471 15.5,39.5 Z"/></g>
<g><path style="opacity:0.814" fill="#ab65f3" d="M 7.5,39.5 C 10.9496,38.7564 12.6162,40.0897 12.5,43.5C 10.6693,42.9478 9.0026,42.9478 7.5,43.5C 6.37437,42.1916 6.37437,40.8583 7.5,39.5 Z"/></g>
<g><path style="opacity:0.734" fill="#a263f4" d="M 36.5,40.5 C 39.1667,40.5 41.8333,40.5 44.5,40.5C 45.5862,40.62 46.2528,41.2867 46.5,42.5C 45.8311,45.0278 44.9978,45.0278 44,42.5C 42.5823,45.001 41.5823,44.6677 41,41.5C 39.3804,52.5593 43.7137,56.226 54,52.5C 56.0063,49.4642 56.8396,46.1309 56.5,42.5C 58.1667,42.5 59.8333,42.5 61.5,42.5C 62.412,46.1306 62.5787,49.7973 62,53.5C 60.6811,55.4875 58.8477,56.6541 56.5,57C 53.7389,56.6726 51.0722,56.8393 48.5,57.5C 45.2187,57.1092 42.3854,55.7759 40,53.5C 39.2223,50.8162 37.8889,48.4828 36,46.5C 35.2109,44.2884 35.3775,42.2884 36.5,40.5 Z M 58.5,47.5 C 59.4778,47.811 60.1445,48.4777 60.5,49.5C 59.8257,51.5165 58.6591,53.1832 57,54.5C 57.4371,52.2433 57.9371,49.91 58.5,47.5 Z"/></g>
<g><path style="opacity:0.742" fill="#a062f5" d="M 10.5,46.5 C 12.3388,47.7525 14.1722,47.7525 16,46.5C 16.6924,47.0253 17.1924,47.6919 17.5,48.5C 14.8333,51.1667 12.1667,51.1667 9.5,48.5C 9.86273,47.8165 10.1961,47.1499 10.5,46.5 Z"/></g>
<g><path style="opacity:0.582" fill="#a261f5" d="M 44.5,47.5 C 46.5184,48.6225 48.5184,48.6225 50.5,47.5C 51.3081,47.8076 51.9747,48.3076 52.5,49C 48.8835,52.5918 46.2168,52.0918 44.5,47.5 Z"/></g>
</svg>
